<svg xmlns="http://www.w3.org/2000/svg" xmlns:xlink="http://www.w3.org/1999/xlink" version="1.1" x="0px" y="0px" viewBox="0 0 90 112.5" enable-background="new 0 0 90 90" xml:space="preserve"><path fill="#000000" d="M44.996,10.984c-17.193,0-31.182,14.013-31.181,31.242l0.09,25.434c0,6.262,5.085,11.355,11.335,11.355  h39.608c6.25,0,11.336-5.094,11.336-11.355V42.221C76.184,24.997,62.196,10.984,44.996,10.984z M73.283,67.66  c0,4.658-3.784,8.449-8.435,8.449H25.24c-4.65,0-8.434-3.791-8.434-8.454l-0.091-25.434c0-15.622,12.687-28.331,28.28-28.331  c15.601,0,28.287,12.709,28.287,28.331V67.66z M70.912,52.165c-1.036,8.911-6.898,16.848-15.302,20.712  c-0.078,0.035-0.162,0.053-0.243,0.053c-0.212,0-0.417-0.117-0.52-0.319c-0.14-0.28-0.035-0.621,0.238-0.772  c2.21-1.223,3.429-2.771,3.429-4.36c0-3.583-6.191-6.609-13.519-6.609c-7.324,0-13.512,3.026-13.512,6.609  c0,1.589,1.216,3.137,3.426,4.359c0.272,0.151,0.378,0.492,0.236,0.771c-0.14,0.28-0.477,0.398-0.761,0.268  c-8.393-3.861-14.256-11.785-15.3-20.681c-0.033-0.283,0.143-0.549,0.415-0.629c0.104-0.029,10.575-3.021,25.53-3.021  c8.745,0,17.305,1.004,25.441,2.986C70.759,51.602,70.947,51.873,70.912,52.165z M19.082,45.625v-3.897  c0-1.288,1.046-2.336,2.332-2.336c1.285,0,2.332,1.048,2.332,2.336v3.897c0,1.288-1.047,2.338-2.332,2.338  C20.128,47.963,19.082,46.913,19.082,45.625z M66.254,45.625v-3.897c0-1.288,1.045-2.336,2.33-2.336  c1.286,0,2.333,1.048,2.333,2.336v3.897c0,1.288-1.047,2.338-2.333,2.338C67.299,47.963,66.254,46.913,66.254,45.625z"/><text x="0" y="105" fill="#000000" font-size="5px" font-weight="bold" font-family="'Helvetica Neue', Helvetica, Arial-Unicode, Arial, Sans-serif">Created by Alberto Miranda</text><text x="0" y="110" fill="#000000" font-size="5px" font-weight="bold" font-family="'Helvetica Neue', Helvetica, Arial-Unicode, Arial, Sans-serif">from the Noun Project</text></svg>